<?xml version="1.0" encoding="utf-8"?>
<!-- Generator: Adobe Illustrator 16.0.0, SVG Export Plug-In . SVG Version: 6.00 Build 0)  -->
<!DOCTYPE svg PUBLIC "-//W3C//DTD SVG 1.1//EN" "http://www.w3.org/Graphics/SVG/1.1/DTD/svg11.dtd">
<svg version="1.1" id="Layer_1" xmlns="http://www.w3.org/2000/svg" xmlns:xlink="http://www.w3.org/1999/xlink" x="0px" y="0px"
	 width="39.292px" height="25.836px" viewBox="4.917 0.833 39.292 25.836" enable-background="new 4.917 0.833 39.292 25.836"
	 xml:space="preserve">
<path fill="none" stroke="#FFFFFF" stroke-width="3" stroke-miterlimit="10" d="M7.143,23.299c0,0,8.062-6.103,17.457,0
	c9.488-6.197,17.468,0,17.468,0L39.25,4.71c0,0-6.49-3.662-14.65,0c-7.13-3.849-14.358,0-14.358,0L7.143,23.299z"/>
<path fill="none" stroke="#FFFFFF" stroke-miterlimit="10" d="M12.845,8.756c0,0,4.627-2.199,9.613,0.084"/>
<path fill="none" stroke="#FFFFFF" stroke-miterlimit="10" d="M12.357,12.452c0,0,4.626-2.199,9.614,0.085"/>
<path fill="none" stroke="#FFFFFF" stroke-miterlimit="10" d="M11.77,16.093c0,0,4.626-2.199,9.614,0.084"/>
<path fill="none" stroke="#FFFFFF" stroke-miterlimit="10" d="M36.1,8.784c0,0-4.624-2.199-9.612,0.084"/>
<path fill="none" stroke="#FFFFFF" stroke-miterlimit="10" d="M36.591,12.481c0,0-4.629-2.2-9.615,0.083"/>
<path fill="none" stroke="#FFFFFF" stroke-miterlimit="10" d="M37.176,16.119c0,0-4.626-2.197-9.612,0.086"/>
<path fill="#FFFFFF" d="M5.147,26.67h38.788c0,0-1.963-6.315-9.346-6.07c-7.384,0.245-9.984,3.031-9.984,3.031l-9.126-3.038
	C15.479,20.593,7.068,20.536,5.147,26.67z"/>
</svg>
